# xmcd
#
# Track frame offsets:
#	150
#	20624
#	28753
#	47302
#	70174
#	88724
#	101465
#	116479
#	134875
#	157509
#	176309
#	186460
#	201188
#
# Disc length: 2763 seconds
#
# Revision: 1
# Processed by: cddbd v1.5.2PL0 Copyright (c) Steve Scherf et al.
# Submitted via: audiograbber 1.83.01
#
DISCID=a80ac90d
DTITLE=Triplepack - The Other Kind Of Swing
DYEAR=1999
DGENRE=Swing
TTITLE0=Just Three Men (Part 1)
TTITLE1=Hit The Road Jack
TTITLE2=Sailing
TTITLE3=Billy Jean
TTITLE4=Everybody Needs Somebody
TTITLE5=Down Under
TTITLE6=I Still Haven´t Found What I´m Looking For
TTITLE7=Tiny Dancer
TTITLE8=Englishman In New York
TTITLE9=Moon Over Bourbon Street
TTITLE10=Ain´t No Sunshine
TTITLE11=I Can See Clearly Now
TTITLE12=Just Three Men (Part 2)
EXTD=
EXTT0=
EXTT1=
EXTT2=
EXTT3=
EXTT4=
EXTT5=
EXTT6=
EXTT7=
EXTT8=
EXTT9=
EXTT10=
EXTT11=
EXTT12=
PLAYORDER=
